<svg width="85" height="52" viewBox="0 0 85 52" fill="none" xmlns="http://www.w3.org/2000/svg">
<path d="M13.1898 48.9894L12.7078 49.8656L12.7139 49.8689L13.1898 48.9894ZM6.11976 42.8994L5.31614 43.4946L5.32331 43.5041L6.11976 42.8994ZM1.84976 34.7094L0.896632 35.0119L0.898803 35.0188L0.901073 35.0256L1.84976 34.7094ZM1.98976 17.1394L2.93544 17.4644H2.93544L1.98976 17.1394ZM6.46976 9.01936L7.24773 9.64773L7.2535 9.64044L6.46976 9.01936ZM13.5398 3.13936L14.0049 4.02462L14.0103 4.02172L13.5398 3.13936ZM32.7898 3.27936L33.2828 2.40934V2.40934L32.7898 3.27936ZM39.7898 9.43937L38.9861 10.0346L38.9933 10.0441L39.7898 9.43937ZM44.0598 17.6294L43.1066 17.9319L43.1088 17.9388L43.1111 17.9456L44.0598 17.6294ZM43.9898 35.1294L43.0441 34.8043L43.9898 35.1294ZM39.5098 43.2494L40.2877 43.8777L39.5098 43.2494ZM32.3698 49.1294L32.8349 50.0146L32.8403 50.0117L32.3698 49.1294ZM16.2698 34.9894L15.3753 35.4366L15.385 35.456L15.3956 35.475L16.2698 34.9894ZM18.9998 38.0694L18.4217 38.8854L18.4333 38.8936L18.4451 38.9014L18.9998 38.0694ZM27.0498 37.9294L26.4498 37.1294L26.4415 37.1355L26.4334 37.1419L27.0498 37.9294ZM29.7098 34.7094L28.8283 34.2371L28.8216 34.2496L28.8153 34.2621L29.7098 34.7094ZM31.1798 30.5094L30.2015 30.3019L30.1991 30.3134L30.1969 30.3251L31.1798 30.5094ZM31.1798 21.4794L32.158 21.2719V21.2719L31.1798 21.4794ZM29.6398 17.2794L28.7583 17.7516L28.7619 17.7583L28.7656 17.765L29.6398 17.2794ZM26.9098 14.1994L26.3154 15.0035L26.3349 15.018L26.3551 15.0314L26.9098 14.1994ZM18.9298 14.2694L18.3298 13.4694V13.4694L18.9298 14.2694ZM16.1998 17.4894L15.3183 17.0171L15.3116 17.0296L15.3053 17.0421L16.1998 17.4894ZM14.7298 21.7594L13.7515 21.5519L13.7491 21.5634L13.7469 21.5751L14.7298 21.7594ZM22.9898 50.2994C19.4459 50.2994 16.3468 49.5603 13.6656 48.1098L12.7139 49.8689C15.726 51.4984 19.1603 52.2994 22.9898 52.2994V50.2994ZM13.6717 48.1131C10.9931 46.6399 8.74399 44.702 6.9162 42.2947L5.32331 43.5041C7.32219 46.1367 9.7864 48.2588 12.7078 49.8656L13.6717 48.1131ZM6.92331 42.3041C5.11867 39.8679 3.74468 37.2319 2.79844 34.3931L0.901073 35.0256C1.91483 38.0669 3.38751 40.8909 5.3162 43.4946L6.92331 42.3041ZM2.80288 34.4068C1.89748 31.5548 1.44976 28.7868 1.44976 26.0994H-0.550244C-0.550244 29.0119 -0.0646342 31.984 0.896632 35.0119L2.80288 34.4068ZM1.44976 26.0994C1.44976 23.2295 1.94266 20.3525 2.93544 17.4644L1.04407 16.8143C-0.0164789 19.8995 -0.550244 22.9959 -0.550244 26.0994H1.44976ZM2.93544 17.4644C3.92475 14.5865 5.36176 11.9827 7.2477 9.6477L5.69182 8.39103C3.65775 10.9094 2.10809 13.7189 1.04407 16.8143L2.93544 17.4644ZM7.2535 9.64044C9.12819 7.27477 11.3769 5.40543 14.0049 4.02461L13.0746 2.25412C10.196 3.76663 7.73133 5.81729 5.68601 8.39828L7.2535 9.64044ZM14.0103 4.02172C16.651 2.61335 19.6367 1.89936 22.9898 1.89936V-0.100637C19.3428 -0.100637 16.0285 0.678713 13.0692 2.25701L14.0103 4.02172ZM22.9898 1.89936C26.5782 1.89936 29.6697 2.6607 32.2967 4.14938L33.2828 2.40934C30.3099 0.724693 26.868 -0.100637 22.9898 -0.100637V1.89936ZM32.2967 4.14938C34.9784 5.66901 37.2049 7.62987 38.9862 10.0346L40.5933 8.84414C38.6413 6.20886 36.2011 4.06305 33.2828 2.40934L32.2967 4.14938ZM38.9933 10.0441C40.8393 12.4754 42.2088 15.1037 43.1066 17.9319L45.0129 17.3268C44.0441 14.275 42.5668 11.4433 40.5862 8.83466L38.9933 10.0441ZM43.1111 17.9456C44.0619 20.7982 44.5298 23.5145 44.5298 26.0994H46.5298C46.5298 23.2709 46.0176 20.3406 45.0084 17.3131L43.1111 17.9456ZM44.5298 26.0994C44.5298 29.0176 44.0363 31.9179 43.0441 34.8043L44.9354 35.4544C45.9966 32.3675 46.5298 29.2478 46.5298 26.0994H44.5298ZM43.0441 34.8043C42.0548 37.6823 40.6178 40.2861 38.7318 42.621L40.2877 43.8777C42.3218 41.3593 43.8714 38.5498 44.9354 35.4544L43.0441 34.8043ZM38.7318 42.621C36.8577 44.9414 34.5828 46.8157 31.8992 48.247L32.8403 50.0117C35.7567 48.4563 38.2419 46.4107 40.2877 43.8777L38.7318 42.621ZM31.9046 48.2441C29.3119 49.6064 26.3483 50.2994 22.9898 50.2994V52.2994C26.6312 52.2994 29.9209 51.5457 32.8349 50.0146L31.9046 48.2441ZM13.3098 26.0994C13.3098 27.7106 13.4807 29.3202 13.8215 30.9269L15.778 30.5119C15.4655 29.0386 15.3098 27.5681 15.3098 26.0994H13.3098ZM13.8215 30.9269C14.1645 32.5436 14.6812 34.0483 15.3753 35.4366L17.1642 34.5422C16.5517 33.3171 16.0884 31.9751 15.778 30.5119L13.8215 30.9269ZM15.3956 35.475C16.1646 36.8592 17.1734 38.0011 18.4217 38.8854L19.5778 37.2533C18.5861 36.5509 17.7749 35.6395 17.1439 34.5037L15.3956 35.475ZM18.4451 38.9014C19.7521 39.7728 21.2816 40.1894 22.9898 40.1894V38.1894C21.6179 38.1894 20.4874 37.8593 19.5545 37.2373L18.4451 38.9014ZM22.9898 40.1894C24.8007 40.1894 26.3838 39.7204 27.6661 38.7169L26.4334 37.1419C25.569 37.8184 24.4455 38.1894 22.9898 38.1894V40.1894ZM27.6498 38.7294C28.8994 37.7921 29.8845 36.5959 30.6042 35.1566L28.8153 34.2621C28.2283 35.4362 27.4401 36.3866 26.4498 37.1294L27.6498 38.7294ZM30.5912 35.1816C31.3408 33.7824 31.8642 32.285 32.1626 30.6937L30.1969 30.3251C29.9353 31.7203 29.4787 33.0229 28.8283 34.2371L30.5912 35.1816ZM32.158 30.7169C32.4974 29.1169 32.6698 27.5771 32.6698 26.0994H30.6698C30.6698 27.4216 30.5155 28.8218 30.2015 30.3019L32.158 30.7169ZM32.6698 26.0994C32.6698 24.4881 32.4988 22.8786 32.158 21.2719L30.2015 21.6869C30.514 23.1602 30.6698 24.6306 30.6698 26.0994H32.6698ZM32.158 21.2719C31.8126 19.6434 31.2665 18.1484 30.5139 16.7937L28.7656 17.765C29.413 18.9304 29.8936 20.2353 30.2015 21.6869L32.158 21.2719ZM30.5212 16.8071C29.7516 15.3705 28.7348 14.2142 27.4645 13.3673L26.3551 15.0314C27.3247 15.6779 28.1279 16.5749 28.7583 17.7516L30.5212 16.8071ZM27.5041 13.3952C26.2331 12.4557 24.7095 12.0094 22.9898 12.0094V14.0094C24.35 14.0094 25.4397 14.3563 26.3154 15.0035L27.5041 13.3952ZM22.9898 12.0094C21.2169 12.0094 19.6455 12.4825 18.3298 13.4694L19.5298 15.0694C20.454 14.3762 21.5893 14.0094 22.9898 14.0094V12.0094ZM18.3298 13.4694C17.0864 14.4019 16.083 15.5897 15.3183 17.0171L17.0812 17.9616C17.7166 16.7757 18.5332 15.8168 19.5298 15.0694L18.3298 13.4694ZM15.3053 17.0421C14.6112 18.4305 14.0945 19.9351 13.7515 21.5519L15.708 21.9669C16.0184 20.5036 16.4817 19.1616 17.0942 17.9366L15.3053 17.0421ZM13.7469 21.5751C13.4564 23.1241 13.3098 24.6326 13.3098 26.0994H15.3098C15.3098 24.7662 15.4431 23.3813 15.7126 21.9437L13.7469 21.5751ZM84.9305 38.6994H85.9305V37.6994H84.9305V38.6994ZM84.9305 50.5994V51.5994H85.9305V50.5994H84.9305ZM52.5205 50.5994H51.5205V51.5994H52.5205V50.5994ZM52.5205 38.6994V37.6994H51.5205V38.6994H52.5205ZM62.4605 38.6994V39.6994H63.4605V38.6994H62.4605ZM62.4605 13.3594H63.4605V10.0566L61.6284 12.8047L62.4605 13.3594ZM60.5705 15.2494L61.1637 16.0544L61.177 16.0446L61.1901 16.0342L60.5705 15.2494ZM57.4905 17.2094L57.9668 18.0887L57.9791 18.0819L57.4905 17.2094ZM54.0605 18.7494L54.3992 19.6903L54.0605 18.7494ZM50.9105 19.3794H49.9105V20.3794H50.9105V19.3794ZM50.9105 7.19937V6.19937H49.9105V7.19937H50.9105ZM54.7605 6.21936L54.3257 5.31873L54.3132 5.32494L54.7605 6.21936ZM58.4705 3.97936L57.8862 3.16783L57.8783 3.17352L57.8705 3.17937L58.4705 3.97936ZM61.2705 1.66936L60.5865 0.939823L60.5748 0.950853L60.5634 0.962255L61.2705 1.66936ZM62.4605 0.549363V-0.450637H62.0462L61.7534 -0.157749L62.4605 0.549363ZM76.0405 0.549363H77.0405V-0.450637H76.0405V0.549363ZM76.0405 38.6994H75.0405V39.6994H76.0405V38.6994ZM83.9305 38.6994V50.5994H85.9305V38.6994H83.9305ZM84.9305 49.5994H52.5205V51.5994H84.9305V49.5994ZM53.5205 50.5994V38.6994H51.5205V50.5994H53.5205ZM52.5205 39.6994H62.4605V37.6994H52.5205V39.6994ZM63.4605 38.6994V13.3594H61.4605V38.6994H63.4605ZM61.6284 12.8047C61.3396 13.2379 60.8029 13.7918 59.9508 14.4645L61.1901 16.0342C62.1113 15.307 62.8347 14.6008 63.2925 13.9141L61.6284 12.8047ZM59.9773 14.4443C59.1302 15.0685 58.1397 15.6997 57.0019 16.3369L57.9791 18.0819C59.1746 17.4124 60.2374 16.7369 61.1637 16.0544L59.9773 14.4443ZM57.0142 16.3301C55.9372 16.9134 54.8398 17.406 53.7217 17.8085L54.3992 19.6903C55.6145 19.2528 56.8037 18.7186 57.9667 18.0887L57.0142 16.3301ZM53.7217 17.8085C52.6302 18.2014 51.6974 18.3794 50.9105 18.3794V20.3794C51.9902 20.3794 53.1574 20.1373 54.3992 19.6903L53.7217 17.8085ZM51.9105 19.3794V7.19937H49.9105V19.3794H51.9105ZM50.9105 8.19937C52.3487 8.19937 53.7843 7.82548 55.2077 7.11379L54.3132 5.32494C53.1233 5.91991 51.9922 6.19937 50.9105 6.19937V8.19937ZM55.1952 7.11992C56.6025 6.44053 57.8951 5.66086 59.0705 4.77936L57.8705 3.17937C56.8058 3.97787 55.6251 4.69154 54.3257 5.31881L55.1952 7.11992ZM59.0548 4.7909C60.2474 3.93218 61.2267 3.12733 61.9776 2.37647L60.5634 0.962255C59.9142 1.6114 59.0268 2.34655 57.8862 3.16783L59.0548 4.7909ZM61.9544 2.3989C62.6891 1.71015 63.1058 1.31823 63.1676 1.25648L61.7534 -0.157749C61.7536 -0.158013 61.7321 -0.137206 61.6721 -0.0803413C61.6179 -0.0289545 61.5415 0.0430956 61.4426 0.136161C61.245 0.322151 60.9597 0.589955 60.5865 0.939823L61.9544 2.3989ZM62.4605 1.54936H76.0405V-0.450637H62.4605V1.54936ZM75.0405 0.549363V38.6994H77.0405V0.549363H75.0405ZM76.0405 39.6994H84.9305V37.6994H76.0405V39.6994Z" fill="#5D5FEF"/>
</svg>
