<svg width="89" height="52" viewBox="0 0 89 52" fill="none" xmlns="http://www.w3.org/2000/svg">
<path d="M13.1898 48.9894L12.7078 49.8656L12.7139 49.8689L13.1898 48.9894ZM6.11976 42.8994L5.31614 43.4946L5.32331 43.5041L6.11976 42.8994ZM1.84976 34.7094L0.896632 35.0119L0.898803 35.0188L0.901073 35.0256L1.84976 34.7094ZM1.98976 17.1394L2.93544 17.4644H2.93544L1.98976 17.1394ZM6.46976 9.01936L7.24773 9.64773L7.2535 9.64044L6.46976 9.01936ZM13.5398 3.13936L14.0049 4.02462L14.0103 4.02172L13.5398 3.13936ZM32.7898 3.27936L33.2828 2.40934V2.40934L32.7898 3.27936ZM39.7898 9.43937L38.9861 10.0346L38.9933 10.0441L39.7898 9.43937ZM44.0598 17.6294L43.1066 17.9319L43.1088 17.9388L43.1111 17.9456L44.0598 17.6294ZM43.9898 35.1294L43.0441 34.8043L43.9898 35.1294ZM39.5098 43.2494L40.2877 43.8777L39.5098 43.2494ZM32.3698 49.1294L32.8349 50.0146L32.8403 50.0117L32.3698 49.1294ZM16.2698 34.9894L15.3753 35.4366L15.385 35.456L15.3956 35.475L16.2698 34.9894ZM18.9998 38.0694L18.4217 38.8854L18.4333 38.8936L18.4451 38.9014L18.9998 38.0694ZM27.0498 37.9294L26.4498 37.1294L26.4415 37.1355L26.4334 37.1419L27.0498 37.9294ZM29.7098 34.7094L28.8283 34.2371L28.8216 34.2496L28.8153 34.2621L29.7098 34.7094ZM31.1798 30.5094L30.2015 30.3019L30.1991 30.3134L30.1969 30.3251L31.1798 30.5094ZM31.1798 21.4794L32.158 21.2719V21.2719L31.1798 21.4794ZM29.6398 17.2794L28.7583 17.7516L28.7619 17.7583L28.7656 17.765L29.6398 17.2794ZM26.9098 14.1994L26.3154 15.0035L26.3349 15.018L26.3551 15.0314L26.9098 14.1994ZM18.9298 14.2694L18.3298 13.4694V13.4694L18.9298 14.2694ZM16.1998 17.4894L15.3183 17.0171L15.3116 17.0296L15.3053 17.0421L16.1998 17.4894ZM14.7298 21.7594L13.7515 21.5519L13.7491 21.5634L13.7469 21.5751L14.7298 21.7594ZM22.9898 50.2994C19.4459 50.2994 16.3468 49.5603 13.6656 48.1098L12.7139 49.8689C15.726 51.4984 19.1603 52.2994 22.9898 52.2994V50.2994ZM13.6717 48.1131C10.9931 46.6399 8.74399 44.702 6.9162 42.2947L5.32331 43.5041C7.32219 46.1367 9.7864 48.2588 12.7078 49.8656L13.6717 48.1131ZM6.92331 42.3041C5.11867 39.8679 3.74468 37.2319 2.79844 34.3931L0.901073 35.0256C1.91483 38.0669 3.38751 40.8909 5.3162 43.4946L6.92331 42.3041ZM2.80288 34.4068C1.89748 31.5548 1.44976 28.7868 1.44976 26.0994H-0.550244C-0.550244 29.0119 -0.0646342 31.984 0.896632 35.0119L2.80288 34.4068ZM1.44976 26.0994C1.44976 23.2295 1.94266 20.3525 2.93544 17.4644L1.04407 16.8143C-0.0164789 19.8995 -0.550244 22.9959 -0.550244 26.0994H1.44976ZM2.93544 17.4644C3.92475 14.5865 5.36176 11.9827 7.2477 9.6477L5.69182 8.39103C3.65775 10.9094 2.10809 13.7189 1.04407 16.8143L2.93544 17.4644ZM7.2535 9.64044C9.12819 7.27477 11.3769 5.40543 14.0049 4.02461L13.0746 2.25412C10.196 3.76663 7.73133 5.81729 5.68601 8.39828L7.2535 9.64044ZM14.0103 4.02172C16.651 2.61335 19.6367 1.89936 22.9898 1.89936V-0.100637C19.3428 -0.100637 16.0285 0.678713 13.0692 2.25701L14.0103 4.02172ZM22.9898 1.89936C26.5782 1.89936 29.6697 2.6607 32.2967 4.14938L33.2828 2.40934C30.3099 0.724693 26.868 -0.100637 22.9898 -0.100637V1.89936ZM32.2967 4.14938C34.9784 5.66901 37.2049 7.62987 38.9862 10.0346L40.5933 8.84414C38.6413 6.20886 36.2011 4.06305 33.2828 2.40934L32.2967 4.14938ZM38.9933 10.0441C40.8393 12.4754 42.2088 15.1037 43.1066 17.9319L45.0129 17.3268C44.0441 14.275 42.5668 11.4433 40.5862 8.83466L38.9933 10.0441ZM43.1111 17.9456C44.0619 20.7982 44.5298 23.5145 44.5298 26.0994H46.5298C46.5298 23.2709 46.0176 20.3406 45.0084 17.3131L43.1111 17.9456ZM44.5298 26.0994C44.5298 29.0176 44.0363 31.9179 43.0441 34.8043L44.9354 35.4544C45.9966 32.3675 46.5298 29.2478 46.5298 26.0994H44.5298ZM43.0441 34.8043C42.0548 37.6823 40.6178 40.2861 38.7318 42.621L40.2877 43.8777C42.3218 41.3593 43.8714 38.5498 44.9354 35.4544L43.0441 34.8043ZM38.7318 42.621C36.8577 44.9414 34.5828 46.8157 31.8992 48.247L32.8403 50.0117C35.7567 48.4563 38.2419 46.4107 40.2877 43.8777L38.7318 42.621ZM31.9046 48.2441C29.3119 49.6064 26.3483 50.2994 22.9898 50.2994V52.2994C26.6312 52.2994 29.9209 51.5457 32.8349 50.0146L31.9046 48.2441ZM13.3098 26.0994C13.3098 27.7106 13.4807 29.3202 13.8215 30.9269L15.778 30.5119C15.4655 29.0386 15.3098 27.5681 15.3098 26.0994H13.3098ZM13.8215 30.9269C14.1645 32.5436 14.6812 34.0483 15.3753 35.4366L17.1642 34.5422C16.5517 33.3171 16.0884 31.9751 15.778 30.5119L13.8215 30.9269ZM15.3956 35.475C16.1646 36.8592 17.1734 38.0011 18.4217 38.8854L19.5778 37.2533C18.5861 36.5509 17.7749 35.6395 17.1439 34.5037L15.3956 35.475ZM18.4451 38.9014C19.7521 39.7728 21.2816 40.1894 22.9898 40.1894V38.1894C21.6179 38.1894 20.4874 37.8593 19.5545 37.2373L18.4451 38.9014ZM22.9898 40.1894C24.8007 40.1894 26.3838 39.7204 27.6661 38.7169L26.4334 37.1419C25.569 37.8184 24.4455 38.1894 22.9898 38.1894V40.1894ZM27.6498 38.7294C28.8994 37.7921 29.8845 36.5959 30.6042 35.1566L28.8153 34.2621C28.2283 35.4362 27.4401 36.3866 26.4498 37.1294L27.6498 38.7294ZM30.5912 35.1816C31.3408 33.7824 31.8642 32.285 32.1626 30.6937L30.1969 30.3251C29.9353 31.7203 29.4787 33.0229 28.8283 34.2371L30.5912 35.1816ZM32.158 30.7169C32.4974 29.1169 32.6698 27.5771 32.6698 26.0994H30.6698C30.6698 27.4216 30.5155 28.8218 30.2015 30.3019L32.158 30.7169ZM32.6698 26.0994C32.6698 24.4881 32.4988 22.8786 32.158 21.2719L30.2015 21.6869C30.514 23.1602 30.6698 24.6306 30.6698 26.0994H32.6698ZM32.158 21.2719C31.8126 19.6434 31.2665 18.1484 30.5139 16.7937L28.7656 17.765C29.413 18.9304 29.8936 20.2353 30.2015 21.6869L32.158 21.2719ZM30.5212 16.8071C29.7516 15.3705 28.7348 14.2142 27.4645 13.3673L26.3551 15.0314C27.3247 15.6779 28.1279 16.5749 28.7583 17.7516L30.5212 16.8071ZM27.5041 13.3952C26.2331 12.4557 24.7095 12.0094 22.9898 12.0094V14.0094C24.35 14.0094 25.4397 14.3563 26.3154 15.0035L27.5041 13.3952ZM22.9898 12.0094C21.2169 12.0094 19.6455 12.4825 18.3298 13.4694L19.5298 15.0694C20.454 14.3762 21.5893 14.0094 22.9898 14.0094V12.0094ZM18.3298 13.4694C17.0864 14.4019 16.083 15.5897 15.3183 17.0171L17.0812 17.9616C17.7166 16.7757 18.5332 15.8168 19.5298 15.0694L18.3298 13.4694ZM15.3053 17.0421C14.6112 18.4305 14.0945 19.9351 13.7515 21.5519L15.708 21.9669C16.0184 20.5036 16.4817 19.1616 17.0942 17.9366L15.3053 17.0421ZM13.7469 21.5751C13.4564 23.1241 13.3098 24.6326 13.3098 26.0994H15.3098C15.3098 24.7662 15.4431 23.3813 15.7126 21.9437L13.7469 21.5751ZM50.4905 50.5994H49.4905V51.5994H50.4905V50.5994ZM50.7705 42.9694L49.7763 42.8613L49.7752 42.872L49.7742 42.8827L50.7705 42.9694ZM52.0305 37.2994L51.0985 36.9369L51.0957 36.944L51.093 36.9512L52.0305 37.2994ZM54.9005 32.8194L54.1811 32.1248L54.1806 32.1252L54.9005 32.8194ZM60.0105 28.8294L59.496 27.9719L59.489 27.976L59.4822 27.9803L60.0105 28.8294ZM64.4205 26.3094L64.8993 27.1873L64.9083 27.1823L64.4205 26.3094ZM68.8305 23.5794L69.3982 24.4026L69.4039 24.3986L68.8305 23.5794ZM72.1905 20.3594L71.3943 19.7543L71.3865 19.7646L71.3789 19.7751L72.1905 20.3594ZM71.2105 12.5194L71.5818 11.5909V11.5909L71.2105 12.5194ZM65.2605 12.8694L65.6194 13.8027L65.6286 13.7992L65.6378 13.7955L65.2605 12.8694ZM61.6905 14.6894L61.1514 13.8471L61.1435 13.8521L61.1358 13.8573L61.6905 14.6894ZM58.6805 17.1394L57.945 17.8169L58.6509 18.5832L59.3876 17.8465L58.6805 17.1394ZM50.4905 8.24936L49.7359 7.59319L49.1485 8.26862L49.755 8.92692L50.4905 8.24936ZM53.9205 5.23936L53.3658 4.40732L53.3592 4.41168L53.3527 4.41615L53.9205 5.23936ZM58.6105 2.71936L58.2224 1.79769L58.2136 1.80151L58.6105 2.71936ZM64.3505 0.969362L64.1501 -0.0103531L64.3505 0.969362ZM80.5205 2.15936L80.9355 1.24954H80.9355L80.5205 2.15936ZM86.6105 7.40936L85.7576 7.93154L85.7625 7.93936L86.6105 7.40936ZM88.0105 20.3594L87.056 20.0611L87.0517 20.0748L87.0478 20.0886L88.0105 20.3594ZM86.0505 24.5594L85.223 23.9978L85.2184 24.0047L86.0505 24.5594ZM82.9705 28.0594L82.3079 27.3104L82.9705 28.0594ZM78.8405 31.1394L79.3745 31.9849L79.3773 31.983L78.8405 31.1394ZM74.3605 34.0094L74.8995 34.8517L74.9077 34.8463L74.3605 34.0094ZM71.3505 35.9694L71.8719 36.8226L71.8887 36.8124L71.9052 36.8014L71.3505 35.9694ZM69.1805 37.4394L69.7497 38.2616L69.7703 38.2473L69.7902 38.232L69.1805 37.4394ZM67.3605 38.6994L66.7913 37.8772L64.1592 39.6994H67.3605V38.6994ZM88.7805 38.6994H89.7805V37.6994H88.7805V38.6994ZM88.7805 50.5994V51.5994H89.7805V50.5994H88.7805ZM51.4905 50.5994C51.4905 47.6787 51.5833 45.1656 51.7667 43.056L49.7742 42.8827C49.5843 45.0664 49.4905 47.6401 49.4905 50.5994H51.4905ZM51.7646 43.0774C51.991 40.9941 52.3958 39.1877 52.9679 37.6476L51.093 36.9512C50.4517 38.6777 50.0165 40.6513 49.7763 42.8613L51.7646 43.0774ZM52.9625 37.6618C53.5674 36.1062 54.4516 34.7254 55.6203 33.5135L54.1806 32.1252C52.8293 33.5266 51.8002 35.1325 51.0985 36.9369L52.9625 37.6618ZM55.6199 33.514C56.8548 32.2349 58.4881 30.9544 60.5388 29.6784L59.4822 27.9803C57.3329 29.3176 55.5595 30.6971 54.1811 32.1248L55.6199 33.514ZM60.525 29.6869C61.9124 28.8544 63.3705 28.0212 64.8993 27.1873L63.9416 25.4315C62.3905 26.2775 60.9085 27.1243 59.496 27.9719L60.525 29.6869ZM64.9083 27.1823C66.5195 26.2819 68.0165 25.3555 69.3982 24.4026L68.2627 22.7562C66.9378 23.6699 65.4947 24.5635 63.9326 25.4364L64.9083 27.1823ZM69.4039 24.3986C70.879 23.366 72.0853 22.2168 73.002 20.9437L71.3789 19.7751C70.6156 20.8353 69.5819 21.8327 68.257 22.7601L69.4039 24.3986ZM72.9866 20.9644C74.0082 19.6202 74.5205 18.0767 74.5205 16.3694H72.5205C72.5205 17.6487 72.146 18.7652 71.3943 19.7543L72.9866 20.9644ZM74.5205 16.3694C74.5205 15.1808 74.2901 14.1143 73.7127 13.2802L72.0683 14.4186C72.3308 14.7978 72.5205 15.4113 72.5205 16.3694H74.5205ZM73.7127 13.2802C73.1784 12.5084 72.4599 11.9421 71.5818 11.5909L70.8391 13.4478C71.361 13.6566 71.7626 13.977 72.0683 14.4186L73.7127 13.2802ZM71.5818 11.5909C70.7576 11.2612 69.8843 11.0994 68.9705 11.0994V13.0994C69.6433 13.0994 70.2633 13.2175 70.8391 13.4478L71.5818 11.5909ZM68.9705 11.0994C67.613 11.0994 66.2485 11.387 64.8832 11.9433L65.6378 13.7955C66.7925 13.325 67.9013 13.0994 68.9705 13.0994V11.0994ZM64.9015 11.936C63.6212 12.4284 62.3712 13.0664 61.1514 13.8471L62.2295 15.5316C63.3431 14.819 64.473 14.2436 65.6194 13.8027L64.9015 11.936ZM61.1358 13.8573C59.9649 14.6379 58.9099 15.4958 57.9734 16.4323L59.3876 17.8465C60.2244 17.0096 61.176 16.2342 62.2452 15.5214L61.1358 13.8573ZM59.4159 16.4618L51.2259 7.57181L49.755 8.92692L57.945 17.8169L59.4159 16.4618ZM51.2451 8.90554C52.1156 7.90443 53.1934 6.95551 54.4882 6.06258L53.3527 4.41615C51.9408 5.38989 50.732 6.44763 49.7359 7.59319L51.2451 8.90554ZM54.4752 6.07141C55.8198 5.17498 57.3294 4.36282 59.0074 3.63722L58.2136 1.80151C56.4382 2.56924 54.8211 3.43707 53.3658 4.40732L54.4752 6.07141ZM58.9985 3.641C60.7063 2.92195 62.5562 2.35708 64.5509 1.94908L64.1501 -0.0103531C62.0381 0.421644 60.0613 1.02344 58.2224 1.79773L58.9985 3.641ZM64.5509 1.94908C66.5326 1.54372 68.6351 1.33936 70.8605 1.33936V-0.660639C68.5125 -0.660639 66.275 -0.445001 64.1501 -0.0103531L64.5509 1.94908ZM70.8605 1.33936C74.5375 1.33936 77.608 1.92998 80.1055 3.06918L80.9355 1.24954C78.1129 -0.0379267 74.7434 -0.660639 70.8605 -0.660639V1.33936ZM80.1055 3.06918C82.6013 4.20763 84.4711 5.8302 85.7576 7.93152L87.4633 6.88721C85.9498 4.41519 83.7596 2.53777 80.9355 1.24954L80.1055 3.06918ZM85.7625 7.93936C87.0462 9.99326 87.7105 12.4853 87.7105 15.4594H89.7105C89.7105 12.1801 88.9748 9.30547 87.4585 6.87936L85.7625 7.93936ZM87.7105 15.4594C87.7105 17.1448 87.4888 18.6762 87.056 20.0611L88.9649 20.6576C89.4655 19.0559 89.7105 17.3206 89.7105 15.4594H87.7105ZM87.0478 20.0886C86.6575 21.4765 86.0503 22.7786 85.223 23.9979L86.8779 25.1209C87.8239 23.7268 88.5235 22.2289 88.9731 20.6301L87.0478 20.0886ZM85.2184 24.0047C84.4295 25.188 83.4611 26.2902 82.3079 27.3104L83.633 28.8084C84.9065 27.6818 85.9914 26.4507 86.8825 25.1141L85.2184 24.0047ZM82.3079 27.3104C81.1385 28.3448 79.8047 29.3404 78.3036 30.2957L79.3773 31.983C80.9562 30.9783 82.3758 29.9205 83.633 28.8084L82.3079 27.3104ZM78.3065 30.2939C76.5305 31.4156 75.0324 32.3752 73.8132 33.1724L74.9077 34.8463C76.1152 34.0568 77.6038 33.1032 79.3745 31.9849L78.3065 30.2939ZM73.8214 33.1671C72.6513 33.916 71.6424 34.5729 70.7958 35.1373L71.9052 36.8014C72.7385 36.2459 73.7363 35.5961 74.8995 34.8516L73.8214 33.1671ZM70.829 35.1161C69.9667 35.6431 69.2124 36.1532 68.5707 36.6467L69.7902 38.232C70.3619 37.7922 71.0543 37.3223 71.8719 36.8226L70.829 35.1161ZM68.6113 36.6172C68.0046 37.0372 67.3979 37.4572 66.7913 37.8772L67.9297 39.5216C68.5363 39.1016 69.143 38.6816 69.7497 38.2616L68.6113 36.6172ZM67.3605 39.6994H88.7805V37.6994H67.3605V39.6994ZM87.7805 38.6994V50.5994H89.7805V38.6994H87.7805ZM88.7805 49.5994H50.4905V51.5994H88.7805V49.5994Z" fill="#5D5FEF"/>
</svg>
