<svg width="87" height="52" viewBox="0 0 87 52" fill="none" xmlns="http://www.w3.org/2000/svg">
<path d="M13.1898 49.39L12.7078 50.2662L12.7139 50.2695L13.1898 49.39ZM6.11976 43.3L5.31614 43.8953L5.32331 43.9047L6.11976 43.3ZM1.84976 35.11L0.896632 35.4126L0.898803 35.4194L0.901073 35.4262L1.84976 35.11ZM1.98976 17.54L2.93544 17.8651H2.93544L1.98976 17.54ZM6.46976 9.42L7.24773 10.0484L7.2535 10.0411L6.46976 9.42ZM13.5398 3.54L14.0049 4.42526L14.0103 4.42235L13.5398 3.54ZM32.7898 3.68L33.2828 2.80997V2.80997L32.7898 3.68ZM39.7898 9.84L38.9861 10.4353L38.9933 10.4447L39.7898 9.84ZM44.0598 18.03L43.1066 18.3326L43.1088 18.3394L43.1111 18.3462L44.0598 18.03ZM43.9898 35.53L43.0441 35.2049L43.9898 35.53ZM39.5098 43.65L40.2877 44.2783L39.5098 43.65ZM32.3698 49.53L32.8349 50.4153L32.8403 50.4124L32.3698 49.53ZM16.2698 35.39L15.3753 35.8372L15.385 35.8566L15.3956 35.8756L16.2698 35.39ZM18.9998 38.47L18.4217 39.286L18.4333 39.2942L18.4451 39.3021L18.9998 38.47ZM27.0498 38.33L26.4498 37.53L26.4415 37.5362L26.4334 37.5425L27.0498 38.33ZM29.7098 35.11L28.8283 34.6378L28.8216 34.6502L28.8153 34.6628L29.7098 35.11ZM31.1798 30.91L30.2015 30.7025L30.1991 30.7141L30.1969 30.7257L31.1798 30.91ZM31.1798 21.88L32.158 21.6725V21.6725L31.1798 21.88ZM29.6398 17.68L28.7583 18.1522L28.7619 18.159L28.7656 18.1656L29.6398 17.68ZM26.9098 14.6L26.3154 15.4042L26.3349 15.4186L26.3551 15.432L26.9098 14.6ZM18.9298 14.67L18.3298 13.87V13.87L18.9298 14.67ZM16.1998 17.89L15.3183 17.4178L15.3116 17.4302L15.3053 17.4428L16.1998 17.89ZM14.7298 22.16L13.7515 21.9525L13.7491 21.9641L13.7469 21.9757L14.7298 22.16ZM22.9898 50.7C19.4459 50.7 16.3468 49.961 13.6656 48.5105L12.7139 50.2695C15.726 51.899 19.1603 52.7 22.9898 52.7V50.7ZM13.6717 48.5138C10.9931 47.0406 8.74399 45.1026 6.9162 42.6953L5.32331 43.9047C7.32219 46.5374 9.7864 48.6594 12.7078 50.2662L13.6717 48.5138ZM6.92331 42.7048C5.11867 40.2685 3.74468 37.6325 2.79844 34.7938L0.901073 35.4262C1.91483 38.4675 3.38751 41.2915 5.3162 43.8952L6.92331 42.7048ZM2.80288 34.8074C1.89748 31.9554 1.44976 29.1875 1.44976 26.5H-0.550244C-0.550244 29.4125 -0.0646342 32.3846 0.896632 35.4126L2.80288 34.8074ZM1.44976 26.5C1.44976 23.6302 1.94266 20.7532 2.93544 17.8651L1.04407 17.2149C-0.0164789 20.3001 -0.550244 23.3965 -0.550244 26.5H1.44976ZM2.93544 17.8651C3.92475 14.9871 5.36176 12.3833 7.2477 10.0483L5.69182 8.79166C3.65775 11.31 2.10809 14.1196 1.04407 17.2149L2.93544 17.8651ZM7.2535 10.0411C9.12819 7.67541 11.3769 5.80607 14.0049 4.42524L13.0746 2.65475C10.196 4.16726 7.73133 6.21792 5.68601 8.79892L7.2535 10.0411ZM14.0103 4.42235C16.651 3.01398 19.6367 2.3 22.9898 2.3V0.299997C19.3428 0.299997 16.0285 1.07935 13.0692 2.65764L14.0103 4.42235ZM22.9898 2.3C26.5782 2.3 29.6697 3.06133 32.2967 4.55002L33.2828 2.80997C30.3099 1.12533 26.868 0.299997 22.9898 0.299997V2.3ZM32.2967 4.55002C34.9784 6.06965 37.2049 8.0305 38.9862 10.4352L40.5933 9.24477C38.6413 6.6095 36.2011 4.46368 33.2828 2.80997L32.2967 4.55002ZM38.9933 10.4447C40.8393 12.8761 42.2088 15.5043 43.1066 18.3326L45.0129 17.7274C44.0441 14.6757 42.5668 11.8439 40.5862 9.23529L38.9933 10.4447ZM43.1111 18.3462C44.0619 21.1988 44.5298 23.9151 44.5298 26.5H46.5298C46.5298 23.6715 46.0176 20.7412 45.0084 17.7138L43.1111 18.3462ZM44.5298 26.5C44.5298 29.4182 44.0363 32.3185 43.0441 35.2049L44.9354 35.8551C45.9966 32.7682 46.5298 29.6485 46.5298 26.5H44.5298ZM43.0441 35.2049C42.0548 38.0829 40.6178 40.6867 38.7318 43.0217L40.2877 44.2783C42.3218 41.76 43.8714 38.9504 44.9354 35.8551L43.0441 35.2049ZM38.7318 43.0217C36.8577 45.342 34.5828 47.2164 31.8992 48.6476L32.8403 50.4124C35.7567 48.857 38.2419 46.8113 40.2877 44.2783L38.7318 43.0217ZM31.9046 48.6448C29.3119 50.007 26.3483 50.7 22.9898 50.7V52.7C26.6312 52.7 29.9209 51.9463 32.8349 50.4152L31.9046 48.6448ZM13.3098 26.5C13.3098 28.1113 13.4807 29.7208 13.8215 31.3275L15.778 30.9125C15.4655 29.4392 15.3098 27.9687 15.3098 26.5H13.3098ZM13.8215 31.3275C14.1645 32.9442 14.6812 34.4489 15.3753 35.8372L17.1642 34.9428C16.5517 33.7178 16.0884 32.3758 15.778 30.9125L13.8215 31.3275ZM15.3956 35.8756C16.1646 37.2598 17.1734 38.4018 18.4217 39.286L19.5778 37.654C18.5861 36.9516 17.7749 36.0402 17.1439 34.9044L15.3956 35.8756ZM18.4451 39.3021C19.7521 40.1734 21.2816 40.59 22.9898 40.59V38.59C21.6179 38.59 20.4874 38.2599 19.5545 37.638L18.4451 39.3021ZM22.9898 40.59C24.8007 40.59 26.3838 40.121 27.6661 39.1175L26.4334 37.5425C25.569 38.219 24.4455 38.59 22.9898 38.59V40.59ZM27.6498 39.13C28.8994 38.1928 29.8845 36.9965 30.6042 35.5572L28.8153 34.6628C28.2283 35.8368 27.4401 36.7872 26.4498 37.53L27.6498 39.13ZM30.5912 35.5822C31.3408 34.1831 31.8642 32.6857 32.1626 31.0943L30.1969 30.7257C29.9353 32.121 29.4787 33.4236 28.8283 34.6378L30.5912 35.5822ZM32.158 31.1175C32.4974 29.5176 32.6698 27.9777 32.6698 26.5H30.6698C30.6698 27.8223 30.5155 29.2224 30.2015 30.7025L32.158 31.1175ZM32.6698 26.5C32.6698 24.8887 32.4988 23.2792 32.158 21.6725L30.2015 22.0875C30.514 23.5608 30.6698 25.0313 30.6698 26.5H32.6698ZM32.158 21.6725C31.8126 20.044 31.2665 18.549 30.5139 17.1944L28.7656 18.1656C29.413 19.331 29.8936 20.636 30.2015 22.0875L32.158 21.6725ZM30.5212 17.2078C29.7516 15.7711 28.7348 14.6148 27.4645 13.7679L26.3551 15.432C27.3247 16.0785 28.1279 16.9756 28.7583 18.1522L30.5212 17.2078ZM27.5041 13.7958C26.2331 12.8564 24.7095 12.41 22.9898 12.41V14.41C24.35 14.41 25.4397 14.757 26.3154 15.4042L27.5041 13.7958ZM22.9898 12.41C21.2169 12.41 19.6455 12.8832 18.3298 13.87L19.5298 15.47C20.454 14.7768 21.5893 14.41 22.9898 14.41V12.41ZM18.3298 13.87C17.0864 14.8025 16.083 15.9904 15.3183 17.4178L17.0812 18.3622C17.7166 17.1763 18.5332 16.2174 19.5298 15.47L18.3298 13.87ZM15.3053 17.4428C14.6112 18.8311 14.0945 20.3358 13.7515 21.9525L15.708 22.3675C16.0184 20.9042 16.4817 19.5622 17.0942 18.3372L15.3053 17.4428ZM13.7469 21.9757C13.4564 23.5247 13.3098 25.0332 13.3098 26.5H15.3098C15.3098 25.1668 15.4431 23.782 15.7126 22.3443L13.7469 21.9757ZM59.5905 50.79L59.3856 51.7688L59.3986 51.7715L59.4116 51.7739L59.5905 50.79ZM53.9905 48.9L53.5432 49.7945L53.553 49.7992L53.9905 48.9ZM49.2305 45.75L48.4123 45.1749L47.8859 45.9239L48.5856 46.5143L49.2305 45.75ZM56.0205 36.09L56.6401 35.3051L55.8103 34.65L55.2023 35.5149L56.0205 36.09ZM58.8205 37.84L58.3905 38.7429L58.4084 38.7514L58.4265 38.7591L58.8205 37.84ZM61.9005 38.82L61.688 39.7972L61.6965 39.799L61.9005 38.82ZM69.3905 38.68L69.0872 37.727L69.0742 37.7313L69.3905 38.68ZM71.6305 37.21L70.824 36.6186L70.8167 36.6288L71.6305 37.21ZM71.4905 31.82L70.7143 32.4506L70.7244 32.4629L70.7348 32.4749L71.4905 31.82ZM68.5505 30.21L68.2757 31.1715L68.2957 31.1772L68.3158 31.1821L68.5505 30.21ZM61.2705 29.65H60.2705V30.65H61.2705V29.65ZM61.2705 20.41V19.41H60.2705V20.41H61.2705ZM69.1105 19.08L68.5624 18.2435L69.1105 19.08ZM70.5805 13.69L69.7167 14.1939L69.7421 14.2374L69.7717 14.2782L70.5805 13.69ZM69.0405 12.43L68.6465 13.3491L68.6577 13.3539L68.6691 13.3585L69.0405 12.43ZM62.0405 13.27L62.5213 14.1468L62.532 14.1409L62.5426 14.1348L62.0405 13.27ZM58.2605 16.91L57.4989 17.5581L58.3635 18.574L59.0962 17.4592L58.2605 16.91ZM49.8605 7.04L49.113 6.37564L48.5352 7.02573L49.0989 7.68812L49.8605 7.04ZM54.3405 3.75L53.902 2.85119L53.8932 2.85557L54.3405 3.75ZM60.7805 1.58L60.9913 2.55752L61.0004 2.55555L61.0095 2.55342L60.7805 1.58ZM77.1605 2.28L76.7891 3.20849L76.7948 3.21075L77.1605 2.28ZM83.2505 6.62L82.46 7.23262L82.4676 7.24224L83.2505 6.62ZM84.2305 18.31L85.1249 18.7572L85.13 18.7469L84.2305 18.31ZM81.0105 22.37L81.6319 23.1535L81.64 23.147L81.648 23.1404L81.0105 22.37ZM76.3905 24.47L76.2046 23.4874L76.2222 25.4557L76.3905 24.47ZM81.4305 26.71L80.8027 27.4884L80.8087 27.4933L80.8148 27.498L81.4305 26.71ZM84.9305 31.19L84.0225 31.6091L84.0267 31.6181L84.9305 31.19ZM83.7405 44.7L82.9446 44.0945L82.9426 44.0972L83.7405 44.7ZM76.8805 49.6L76.5166 48.6685L76.8805 49.6ZM66.2405 50.35C63.9123 50.35 61.7561 50.1674 59.7693 49.8061L59.4116 51.7739C61.5315 52.1593 63.8086 52.35 66.2405 52.35V50.35ZM59.7953 49.8112C57.8637 49.4069 56.0758 48.8024 54.4279 48.0008L53.553 49.7992C55.3584 50.6776 57.3038 51.3331 59.3856 51.7688L59.7953 49.8112ZM54.4377 48.0056C52.8313 47.2024 51.3106 46.1967 49.8753 44.9857L48.5856 46.5143C50.137 47.8233 51.7896 48.9176 53.5432 49.7944L54.4377 48.0056ZM50.0486 46.3251L56.8386 36.6651L55.2023 35.5149L48.4123 45.1749L50.0486 46.3251ZM55.4008 36.8749C56.3437 37.6193 57.3404 38.2428 58.3905 38.7429L59.2504 36.9371C58.3405 36.5039 57.4705 35.9607 56.6401 35.3051L55.4008 36.8749ZM58.4265 38.7591C59.4668 39.205 60.5544 39.5507 61.688 39.7972L62.1129 37.8428C61.0999 37.6226 60.1341 37.315 59.2144 36.9209L58.4265 38.7591ZM61.6965 39.799C62.8923 40.0481 64.1747 40.17 65.5405 40.17V38.17C64.2928 38.17 63.1487 38.0586 62.1044 37.841L61.6965 39.799ZM65.5405 40.17C67.1834 40.17 68.5854 40.0024 69.7067 39.6287L69.0742 37.7313C68.2355 38.0109 67.0708 38.17 65.5405 38.17V40.17ZM69.6937 39.6329C70.8565 39.2629 71.8152 38.6718 72.4442 37.7912L70.8167 36.6288C70.5124 37.0549 69.9778 37.4437 69.0873 37.7271L69.6937 39.6329ZM72.4369 37.8014C73.0978 36.9001 73.4005 35.8193 73.4005 34.62H71.4005C71.4005 35.474 71.1898 36.1199 70.8241 36.6186L72.4369 37.8014ZM73.4005 34.62C73.4005 33.2771 73.048 32.0903 72.2461 31.1651L70.7348 32.4749C71.1463 32.9497 71.4005 33.6295 71.4005 34.62H73.4005ZM72.2666 31.1894C71.472 30.2115 70.2595 29.5938 68.7851 29.2379L68.3158 31.1821C69.5481 31.4795 70.2956 31.9352 70.7143 32.4506L72.2666 31.1894ZM68.8252 29.2485C67.3945 28.8397 65.5887 28.65 63.4405 28.65V30.65C65.4922 30.65 67.0931 30.8336 68.2757 31.1715L68.8252 29.2485ZM63.4405 28.65H61.2705V30.65H63.4405V28.65ZM62.2705 29.65V20.41H60.2705V29.65H62.2705ZM61.2705 21.41H63.7205V19.41H61.2705V21.41ZM63.7205 21.41C66.0829 21.41 68.0909 20.9435 69.6585 19.9165L68.5624 18.2435C67.4234 18.9898 65.838 19.41 63.7205 19.41V21.41ZM69.6585 19.9165C71.2545 18.8708 72.1405 17.4083 72.1405 15.58H70.1405C70.1405 16.645 69.673 17.5159 68.5624 18.2435L69.6585 19.9165ZM72.1405 15.58C72.1405 14.6604 71.9077 13.8147 71.3892 13.1018L69.7717 14.2782C69.9999 14.5919 70.1405 15.0063 70.1405 15.58H72.1405ZM71.4442 13.1861C70.9876 12.4034 70.2835 11.8502 69.4118 11.5015L68.6691 13.3585C69.1974 13.5698 69.52 13.8566 69.7167 14.1939L71.4442 13.1861ZM69.4344 11.5109C68.619 11.1614 67.6579 11.01 66.5905 11.01V13.01C67.483 13.01 68.1553 13.1386 68.6465 13.3491L69.4344 11.5109ZM66.5905 11.01C64.8177 11.01 63.1289 11.4816 61.5383 12.4052L62.5426 14.1348C63.8454 13.3783 65.1899 13.01 66.5905 13.01V11.01ZM61.5596 12.3932C59.9454 13.2784 58.5713 14.6161 57.4248 16.3608L59.0962 17.4592C60.0963 15.9373 61.2422 14.8483 62.5213 14.1468L61.5596 12.3932ZM59.022 16.2619L50.622 6.39188L49.0989 7.68812L57.4989 17.5581L59.022 16.2619ZM50.6079 7.70436C51.6259 6.55912 53.0086 5.53396 54.7877 4.64443L53.8932 2.85557C51.939 3.8327 50.3351 5.00088 49.113 6.37564L50.6079 7.70436ZM54.7789 4.64877C56.6103 3.75538 58.679 3.05624 60.9913 2.55752L60.5696 0.602477C58.1219 1.13042 55.8973 1.87794 53.902 2.85123L54.7789 4.64877ZM61.0095 2.55342C63.3122 2.01161 65.6852 1.74 68.1305 1.74V-0.260004C65.5357 -0.260004 63.0088 0.0283823 60.5514 0.606581L61.0095 2.55342ZM68.1305 1.74C71.4871 1.74 74.3659 2.23922 76.7891 3.20847L77.5319 1.35152C74.8217 0.267443 71.6804 -0.260004 68.1305 -0.260004V1.74ZM76.7948 3.21075C79.2724 4.18407 81.143 5.53312 82.46 7.23257L84.0409 6.00743C82.4646 3.97354 80.2752 2.42925 77.5261 1.34925L76.7948 3.21075ZM82.4676 7.24224C83.7643 8.87358 84.4205 10.7972 84.4205 13.06H86.4205C86.4205 10.3761 85.6299 8.00642 84.0333 5.99776L82.4676 7.24224ZM84.4205 13.06C84.4205 14.7797 84.0563 16.3798 83.3309 17.8731L85.13 18.7469C85.9913 16.9735 86.4205 15.0737 86.4205 13.06H84.4205ZM83.336 17.8628C82.6043 19.3263 81.618 20.5692 80.3729 21.5996L81.648 23.1404C83.1096 21.9308 84.27 20.467 85.1249 18.7572L83.336 17.8628ZM80.3891 21.5865C79.1649 22.5574 77.775 23.1903 76.2046 23.4874L76.5764 25.4526C78.4593 25.0963 80.1493 24.3293 81.6319 23.1535L80.3891 21.5865ZM76.2222 25.4557C77.9749 25.755 79.495 26.4338 80.8027 27.4884L82.0582 25.9316C80.4726 24.6529 78.6327 23.8383 76.5588 23.4843L76.2222 25.4557ZM80.8148 27.498C82.1755 28.5611 83.2452 29.925 84.0225 31.6091L85.8384 30.7709C84.9357 28.815 83.6721 27.1923 82.0461 25.922L80.8148 27.498ZM84.0267 31.6181C84.7976 33.2454 85.1905 35.0573 85.1905 37.07H87.1905C87.1905 34.7894 86.7434 32.6812 85.8342 30.7619L84.0267 31.6181ZM85.1905 37.07C85.1905 39.8121 84.4334 42.1378 82.9446 44.0945L84.5363 45.3055C86.3142 42.9689 87.1905 40.2079 87.1905 37.07H85.1905ZM82.9426 44.0972C81.4895 46.0204 79.3687 47.5545 76.5166 48.6685L77.2443 50.5315C80.3656 49.3122 82.8181 47.5796 84.5383 45.3028L82.9426 44.0972ZM76.5166 48.6685C73.6734 49.7792 70.256 50.35 66.2405 50.35V52.35C70.4382 52.35 74.1142 51.7542 77.2443 50.5315L76.5166 48.6685Z" fill="#5D5FEF"/>
</svg>
