<svg width="88" height="51" viewBox="0 0 88 51" fill="none" xmlns="http://www.w3.org/2000/svg">
<path d="M13.1898 48.39L12.7078 49.2662L12.7139 49.2695L13.1898 48.39ZM6.11976 42.3L5.31614 42.8953L5.32331 42.9047L6.11976 42.3ZM1.84976 34.11L0.896632 34.4126L0.898803 34.4194L0.901073 34.4262L1.84976 34.11ZM1.98976 16.54L2.93544 16.8651H2.93544L1.98976 16.54ZM6.46976 8.42L7.24773 9.04836L7.2535 9.04108L6.46976 8.42ZM13.5398 2.54L14.0049 3.42526L14.0103 3.42235L13.5398 2.54ZM32.7898 2.68L33.2828 1.80997V1.80997L32.7898 2.68ZM39.7898 8.84L38.9861 9.43527L38.9933 9.44471L39.7898 8.84ZM44.0598 17.03L43.1066 17.3326L43.1088 17.3394L43.1111 17.3462L44.0598 17.03ZM43.9898 34.53L43.0441 34.2049L43.9898 34.53ZM39.5098 42.65L40.2877 43.2783L39.5098 42.65ZM32.3698 48.53L32.8349 49.4153L32.8403 49.4124L32.3698 48.53ZM16.2698 34.39L15.3753 34.8372L15.385 34.8566L15.3956 34.8756L16.2698 34.39ZM18.9998 37.47L18.4217 38.286L18.4333 38.2942L18.4451 38.3021L18.9998 37.47ZM27.0498 37.33L26.4498 36.53L26.4415 36.5362L26.4334 36.5425L27.0498 37.33ZM29.7098 34.11L28.8283 33.6378L28.8216 33.6502L28.8153 33.6628L29.7098 34.11ZM31.1798 29.91L30.2015 29.7025L30.1991 29.7141L30.1969 29.7257L31.1798 29.91ZM31.1798 20.88L32.158 20.6725V20.6725L31.1798 20.88ZM29.6398 16.68L28.7583 17.1522L28.7619 17.159L28.7656 17.1656L29.6398 16.68ZM26.9098 13.6L26.3154 14.4042L26.3349 14.4186L26.3551 14.432L26.9098 13.6ZM18.9298 13.67L18.3298 12.87V12.87L18.9298 13.67ZM16.1998 16.89L15.3183 16.4178L15.3116 16.4302L15.3053 16.4428L16.1998 16.89ZM14.7298 21.16L13.7515 20.9525L13.7491 20.9641L13.7469 20.9757L14.7298 21.16ZM22.9898 49.7C19.4459 49.7 16.3468 48.961 13.6656 47.5105L12.7139 49.2695C15.726 50.899 19.1603 51.7 22.9898 51.7V49.7ZM13.6717 47.5138C10.9931 46.0406 8.74399 44.1026 6.9162 41.6953L5.32331 42.9047C7.32219 45.5374 9.7864 47.6594 12.7078 49.2662L13.6717 47.5138ZM6.92331 41.7048C5.11867 39.2685 3.74468 36.6325 2.79844 33.7938L0.901073 34.4262C1.91483 37.4675 3.38751 40.2915 5.3162 42.8952L6.92331 41.7048ZM2.80288 33.8074C1.89748 30.9554 1.44976 28.1875 1.44976 25.5H-0.550244C-0.550244 28.4125 -0.0646342 31.3846 0.896632 34.4126L2.80288 33.8074ZM1.44976 25.5C1.44976 22.6302 1.94266 19.7532 2.93544 16.8651L1.04407 16.2149C-0.0164789 19.3001 -0.550244 22.3965 -0.550244 25.5H1.44976ZM2.93544 16.8651C3.92475 13.9871 5.36176 11.3833 7.2477 9.04833L5.69182 7.79166C3.65775 10.31 2.10809 13.1196 1.04407 16.2149L2.93544 16.8651ZM7.2535 9.04108C9.12819 6.67541 11.3769 4.80607 14.0049 3.42524L13.0746 1.65475C10.196 3.16726 7.73133 5.21792 5.68601 7.79892L7.2535 9.04108ZM14.0103 3.42235C16.651 2.01398 19.6367 1.3 22.9898 1.3V-0.700003C19.3428 -0.700003 16.0285 0.0793476 13.0692 1.65764L14.0103 3.42235ZM22.9898 1.3C26.5782 1.3 29.6697 2.06133 32.2967 3.55002L33.2828 1.80997C30.3099 0.125328 26.868 -0.700003 22.9898 -0.700003V1.3ZM32.2967 3.55002C34.9784 5.06965 37.2049 7.0305 38.9862 9.43523L40.5933 8.24477C38.6413 5.6095 36.2011 3.46368 33.2828 1.80997L32.2967 3.55002ZM38.9933 9.44471C40.8393 11.8761 42.2088 14.5043 43.1066 17.3326L45.0129 16.7274C44.0441 13.6757 42.5668 10.8439 40.5862 8.23529L38.9933 9.44471ZM43.1111 17.3462C44.0619 20.1988 44.5298 22.9151 44.5298 25.5H46.5298C46.5298 22.6715 46.0176 19.7412 45.0084 16.7138L43.1111 17.3462ZM44.5298 25.5C44.5298 28.4182 44.0363 31.3185 43.0441 34.2049L44.9354 34.8551C45.9966 31.7682 46.5298 28.6485 46.5298 25.5H44.5298ZM43.0441 34.2049C42.0548 37.0829 40.6178 39.6867 38.7318 42.0217L40.2877 43.2783C42.3218 40.76 43.8714 37.9504 44.9354 34.8551L43.0441 34.2049ZM38.7318 42.0217C36.8577 44.342 34.5828 46.2164 31.8992 47.6476L32.8403 49.4124C35.7567 47.857 38.2419 45.8113 40.2877 43.2783L38.7318 42.0217ZM31.9046 47.6448C29.3119 49.007 26.3483 49.7 22.9898 49.7V51.7C26.6312 51.7 29.9209 50.9463 32.8349 49.4152L31.9046 47.6448ZM13.3098 25.5C13.3098 27.1113 13.4807 28.7208 13.8215 30.3275L15.778 29.9125C15.4655 28.4392 15.3098 26.9687 15.3098 25.5H13.3098ZM13.8215 30.3275C14.1645 31.9442 14.6812 33.4489 15.3753 34.8372L17.1642 33.9428C16.5517 32.7178 16.0884 31.3758 15.778 29.9125L13.8215 30.3275ZM15.3956 34.8756C16.1646 36.2598 17.1734 37.4018 18.4217 38.286L19.5778 36.654C18.5861 35.9516 17.7749 35.0402 17.1439 33.9044L15.3956 34.8756ZM18.4451 38.3021C19.7521 39.1734 21.2816 39.59 22.9898 39.59V37.59C21.6179 37.59 20.4874 37.2599 19.5545 36.638L18.4451 38.3021ZM22.9898 39.59C24.8007 39.59 26.3838 39.121 27.6661 38.1175L26.4334 36.5425C25.569 37.219 24.4455 37.59 22.9898 37.59V39.59ZM27.6498 38.13C28.8994 37.1928 29.8845 35.9965 30.6042 34.5572L28.8153 33.6628C28.2283 34.8368 27.4401 35.7872 26.4498 36.53L27.6498 38.13ZM30.5912 34.5822C31.3408 33.1831 31.8642 31.6857 32.1626 30.0943L30.1969 29.7257C29.9353 31.121 29.4787 32.4236 28.8283 33.6378L30.5912 34.5822ZM32.158 30.1175C32.4974 28.5176 32.6698 26.9777 32.6698 25.5H30.6698C30.6698 26.8223 30.5155 28.2224 30.2015 29.7025L32.158 30.1175ZM32.6698 25.5C32.6698 23.8887 32.4988 22.2792 32.158 20.6725L30.2015 21.0875C30.514 22.5608 30.6698 24.0313 30.6698 25.5H32.6698ZM32.158 20.6725C31.8126 19.044 31.2665 17.549 30.5139 16.1944L28.7656 17.1656C29.413 18.331 29.8936 19.636 30.2015 21.0875L32.158 20.6725ZM30.5212 16.2078C29.7516 14.7711 28.7348 13.6148 27.4645 12.7679L26.3551 14.432C27.3247 15.0785 28.1279 15.9756 28.7583 17.1522L30.5212 16.2078ZM27.5041 12.7958C26.2331 11.8564 24.7095 11.41 22.9898 11.41V13.41C24.35 13.41 25.4397 13.757 26.3154 14.4042L27.5041 12.7958ZM22.9898 11.41C21.2169 11.41 19.6455 11.8832 18.3298 12.87L19.5298 14.47C20.454 13.7768 21.5893 13.41 22.9898 13.41V11.41ZM18.3298 12.87C17.0864 13.8025 16.083 14.9904 15.3183 16.4178L17.0812 17.3622C17.7166 16.1763 18.5332 15.2174 19.5298 14.47L18.3298 12.87ZM15.3053 16.4428C14.6112 17.8311 14.0945 19.3358 13.7515 20.9525L15.708 21.3675C16.0184 19.9042 16.4817 18.5622 17.0942 17.3372L15.3053 16.4428ZM13.7469 20.9757C13.4564 22.5247 13.3098 24.0332 13.3098 25.5H15.3098C15.3098 24.1668 15.4431 22.782 15.7126 21.3443L13.7469 20.9757ZM67.7105 49.93H66.7105V50.93H67.7105V49.93ZM67.7105 40.41H68.7105V39.41H67.7105V40.41ZM49.7205 40.41H48.7205V41.41H49.7205V40.41ZM49.7205 28.51L48.9337 27.8927L48.7205 28.1645V28.51H49.7205ZM71.9105 0.229998V-0.770001H71.424L71.1237 -0.387307L71.9105 0.229998ZM81.0105 0.229998H82.0105V-0.770001H81.0105V0.229998ZM81.0105 28.51H80.0105V29.51H81.0105V28.51ZM87.1705 28.51H88.1705V27.51H87.1705V28.51ZM87.1705 40.41V41.41H88.1705V40.41H87.1705ZM81.0105 40.41V39.41H80.0105V40.41H81.0105ZM81.0105 49.93V50.93H82.0105V49.93H81.0105ZM62.8105 28.51L62.0169 27.9016L60.7837 29.51H62.8105V28.51ZM69.2505 28.51V29.51H70.2505V28.51H69.2505ZM69.2505 20.11H70.2505V17.1621L68.4569 19.5016L69.2505 20.11ZM68.7105 49.93V40.41H66.7105V49.93H68.7105ZM67.7105 39.41H49.7205V41.41H67.7105V39.41ZM50.7205 40.41V28.51H48.7205V40.41H50.7205ZM50.5072 29.1273L72.6972 0.847303L71.1237 -0.387307L48.9337 27.8927L50.5072 29.1273ZM71.9105 1.23H81.0105V-0.770001H71.9105V1.23ZM80.0105 0.229998V28.51H82.0105V0.229998H80.0105ZM81.0105 29.51H87.1705V27.51H81.0105V29.51ZM86.1705 28.51V40.41H88.1705V28.51H86.1705ZM87.1705 39.41H81.0105V41.41H87.1705V39.41ZM80.0105 40.41V49.93H82.0105V40.41H80.0105ZM81.0105 48.93H67.7105V50.93H81.0105V48.93ZM62.8105 29.51H69.2505V27.51H62.8105V29.51ZM70.2505 28.51V20.11H68.2505V28.51H70.2505ZM68.4569 19.5016L62.0169 27.9016L63.6041 29.1184L70.0441 20.7184L68.4569 19.5016Z" fill="#5D5FEF"/>
</svg>
