<svg width="35" height="36" viewBox="0 0 35 36" fill="none" xmlns="http://www.w3.org/2000/svg">
<path fill-rule="evenodd" clip-rule="evenodd" d="M10.5945 1.26434C12.3052 1.18559 12.8506 1.16809 17.2081 1.16809C21.5656 1.16809 22.111 1.18705 23.8202 1.26434C25.5293 1.34163 26.696 1.61434 27.7168 2.00955C28.7858 2.41351 29.7556 3.04497 30.5577 3.86163C31.3743 4.66226 32.0043 5.63059 32.4068 6.70101C32.8035 7.72184 33.0747 8.88851 33.1535 10.5948C33.2322 12.3083 33.2497 12.8537 33.2497 17.2098C33.2497 21.5673 33.2308 22.1127 33.1535 23.8233C33.0762 25.5295 32.8035 26.6962 32.4068 27.717C32.0043 28.7876 31.3733 29.7575 30.5577 30.5593C29.7556 31.376 28.7858 32.006 27.7168 32.4085C26.696 32.8052 25.5293 33.0764 23.8231 33.1552C22.111 33.2339 21.5656 33.2514 17.2081 33.2514C12.8506 33.2514 12.3052 33.2325 10.5945 33.1552C8.88829 33.0779 7.72162 32.8052 6.70079 32.4085C5.63025 32.006 4.66032 31.3749 3.8585 30.5593C3.04238 29.7582 2.41083 28.7888 2.00787 27.7185C1.61266 26.6977 1.34141 25.531 1.26266 23.8248C1.18391 22.1112 1.16641 21.5658 1.16641 17.2098C1.16641 12.8523 1.18537 12.3068 1.26266 10.5977C1.33995 8.88851 1.61266 7.72184 2.00787 6.70101C2.41142 5.63071 3.04346 4.66126 3.85995 3.86017C4.66064 3.04424 5.6296 2.4127 6.69933 2.00955C7.72016 1.61434 8.88683 1.34309 10.5931 1.26434H10.5945ZM23.6904 4.15184C21.9987 4.07455 21.4912 4.05851 17.2081 4.05851C12.925 4.05851 12.4175 4.07455 10.7258 4.15184C9.161 4.2233 8.31225 4.48434 7.74641 4.70455C6.99829 4.99622 6.46308 5.34184 5.90162 5.9033C5.36939 6.42108 4.9598 7.05142 4.70287 7.74809C4.48266 8.31392 4.22162 9.16267 4.15016 10.7275C4.07287 12.4191 4.05683 12.9266 4.05683 17.2098C4.05683 21.4929 4.07287 22.0004 4.15016 23.692C4.22162 25.2568 4.48266 26.1056 4.70287 26.6714C4.95954 27.367 5.36933 27.9985 5.90162 28.5162C6.41933 29.0485 7.05079 29.4583 7.74641 29.715C8.31225 29.9352 9.161 30.1962 10.7258 30.2677C12.4175 30.345 12.9235 30.361 17.2081 30.361C21.4927 30.361 21.9987 30.345 23.6904 30.2677C25.2552 30.1962 26.1039 29.9352 26.6697 29.715C27.4179 29.4233 27.9531 29.0777 28.5145 28.5162C29.0468 27.9985 29.4566 27.367 29.7133 26.6714C29.9335 26.1056 30.1945 25.2568 30.266 23.692C30.3433 22.0004 30.3593 21.4929 30.3593 17.2098C30.3593 12.9266 30.3433 12.4191 30.266 10.7275C30.1945 9.16267 29.9335 8.31392 29.7133 7.74809C29.4216 6.99997 29.076 6.46476 28.5145 5.9033C27.9967 5.37111 27.3664 4.96152 26.6697 4.70455C26.1039 4.48434 25.2552 4.2233 23.6904 4.15184V4.15184ZM15.1591 22.155C16.3034 22.6313 17.5776 22.6956 18.764 22.3368C19.9504 21.9781 20.9755 21.2186 21.6642 20.188C22.3528 19.1575 22.6623 17.9198 22.5398 16.6864C22.4173 15.453 21.8704 14.3003 20.9925 13.4254C20.4328 12.8661 19.7561 12.4378 19.0111 12.1714C18.266 11.905 17.4712 11.8072 16.6838 11.8848C15.8964 11.9625 15.136 12.2138 14.4574 12.6206C13.7787 13.0274 13.1987 13.5796 12.7591 14.2375C12.3195 14.8953 12.0313 15.6425 11.9151 16.4251C11.7989 17.2078 11.8577 18.0064 12.0872 18.7636C12.3167 19.5208 12.7113 20.2177 13.2425 20.8041C13.7736 21.3906 14.4282 21.8519 15.1591 22.155ZM11.3777 11.3793C12.1433 10.6137 13.0523 10.0063 14.0527 9.59195C15.0531 9.17758 16.1253 8.9643 17.2081 8.9643C18.2909 8.9643 19.3631 9.17758 20.3635 9.59195C21.3639 10.0063 22.2728 10.6137 23.0385 11.3793C23.8042 12.145 24.4115 13.054 24.8259 14.0544C25.2403 15.0547 25.4535 16.1269 25.4535 17.2098C25.4535 18.2926 25.2403 19.3648 24.8259 20.3652C24.4115 21.3655 23.8042 22.2745 23.0385 23.0402C21.4922 24.5865 19.3949 25.4552 17.2081 25.4552C15.0212 25.4552 12.924 24.5865 11.3777 23.0402C9.83134 21.4939 8.96262 19.3966 8.96262 17.2098C8.96262 15.0229 9.83134 12.9257 11.3777 11.3793V11.3793ZM27.2822 10.1923C27.472 10.0133 27.6239 9.79804 27.7289 9.5593C27.834 9.32056 27.8901 9.06317 27.8939 8.80236C27.8977 8.54156 27.8491 8.28264 27.7511 8.04094C27.653 7.79924 27.5075 7.57967 27.323 7.39523C27.1386 7.21079 26.919 7.06524 26.6773 6.96718C26.4356 6.86912 26.1767 6.82056 25.9159 6.82436C25.6551 6.82816 25.3977 6.88425 25.1589 6.98931C24.9202 7.09438 24.705 7.24627 24.526 7.43601C24.1779 7.80501 23.9873 8.29514 23.9947 8.80236C24.0021 9.30958 24.2069 9.79396 24.5656 10.1527C24.9243 10.5114 25.4087 10.7161 25.9159 10.7235C26.4231 10.7309 26.9132 10.5403 27.2822 10.1923V10.1923Z" fill="url(#paint0_linear_1_1618)"/>
<defs>
<linearGradient id="paint0_linear_1_1618" x1="1.16641" y1="1.16809" x2="34.9955" y2="3.12869" gradientUnits="userSpaceOnUse">
<stop stop-color="#EF2555"/>
<stop offset="1" stop-color="#FF3767"/>
</linearGradient>
</defs>
</svg>
