<svg width="35" height="36" viewBox="0 0 35 36" fill="none" xmlns="http://www.w3.org/2000/svg">
<path d="M7.18172 1.09521C5.56896 1.1015 4.02405 1.74495 2.88364 2.88535C1.74324 4.02575 1.09979 5.57067 1.09351 7.18342V27.8195C1.09979 29.4323 1.74324 30.9772 2.88364 32.1176C4.02405 33.258 5.56896 33.9014 7.18172 33.9077H27.8178C29.4306 33.9014 30.9755 33.258 32.1159 32.1176C33.2563 30.9772 33.8997 29.4323 33.906 27.8195V7.18342C33.8997 5.57067 33.2563 4.02575 32.1159 2.88535C30.9755 1.74495 29.4306 1.1015 27.8178 1.09521H7.18172ZM7.18172 4.07817H27.8178C29.5479 4.07817 30.9231 5.45331 30.9231 7.18342V27.8195C30.9231 29.5496 29.5479 30.9248 27.8178 30.9248H7.18172C6.77321 30.9273 6.36826 30.8488 5.99035 30.6936C5.61244 30.5385 5.26909 30.3099 4.98023 30.021C4.69136 29.7321 4.46273 29.3888 4.30759 29.0109C4.15245 28.633 4.07389 28.228 4.07646 27.8195V7.18342C4.07646 5.45331 5.4516 4.07817 7.18172 4.07817ZM17.0807 11.8786C15.9844 11.8682 15.0522 11.8786 14.5287 12.1351C14.1782 12.3052 13.9113 12.6885 14.0738 12.7064C14.2782 12.7362 14.7375 12.8346 14.9836 13.1672C15.2968 13.5923 15.2864 14.5543 15.2864 14.5543C15.2864 14.5543 15.4609 17.1987 14.8598 17.5313C14.4467 17.758 13.8814 17.2971 12.6584 15.1941C12.035 14.1113 11.5637 12.9167 11.5637 12.9167C11.5637 12.9167 11.4742 12.6944 11.3131 12.5781C11.1147 12.4334 10.8403 12.3857 10.8403 12.3857L7.92149 12.4036C7.92149 12.4036 7.48449 12.4215 7.32788 12.6079C7.18172 12.7824 7.31595 13.1255 7.31595 13.1255C7.31595 13.1255 9.5994 18.4679 12.1856 21.1601C14.5571 23.6314 17.2492 23.4674 17.2492 23.4674H18.4722C18.4722 23.4674 18.8391 23.4271 19.0255 23.2287C19.2015 23.0423 19.1956 22.6918 19.1956 22.6918C19.1956 22.6918 19.1717 21.0557 19.9294 20.8111C20.6811 20.5769 21.6356 22.395 22.6558 23.0945C23.4314 23.624 24.019 23.5076 24.019 23.5076L26.7469 23.4674C26.7469 23.4674 28.1683 23.3794 27.4927 22.2548C27.4405 22.1683 27.1019 21.4285 25.4717 19.9132C23.758 18.3292 23.9862 18.5858 26.0474 15.8415C27.3003 14.1695 27.8014 13.1493 27.6433 12.7064C27.4941 12.2932 26.5724 12.4036 26.5724 12.4036L23.5015 12.4215C23.5015 12.4215 23.2748 12.3917 23.1062 12.4916C22.9903 12.5777 22.898 12.6915 22.8378 12.8227C22.8378 12.8227 22.3485 14.1158 21.7012 15.218C20.338 17.5358 19.7847 17.664 19.564 17.5194C19.0449 17.1808 19.1732 16.1666 19.1732 15.4507C19.1732 13.1956 19.5162 12.2634 18.5095 12.0203C18.1769 11.9383 17.9323 11.8861 17.0821 11.8786H17.0807Z" fill="url(#paint0_linear_1_1616)"/>
<defs>
<linearGradient id="paint0_linear_1_1616" x1="1.09351" y1="1.09521" x2="35.6915" y2="3.10038" gradientUnits="userSpaceOnUse">
<stop stop-color="#EF2555"/>
<stop offset="1" stop-color="#FF3767"/>
</linearGradient>
</defs>
</svg>
